<?xml version="1.0" encoding="UTF-8" standalone="no"?>
<!-- Created with Inkscape (http://www.inkscape.org/) -->

<svg
   xmlns:dc="http://purl.org/dc/elements/1.1/"
   xmlns:cc="http://creativecommons.org/ns#"
   xmlns:rdf="http://www.w3.org/1999/02/22-rdf-syntax-ns#"
   xmlns:svg="http://www.w3.org/2000/svg"
   xmlns="http://www.w3.org/2000/svg"
   xmlns:sodipodi="http://sodipodi.sourceforge.net/DTD/sodipodi-0.dtd"
   xmlns:inkscape="http://www.inkscape.org/namespaces/inkscape"
   width="45"
   height="50"
   viewBox="0 0 11.90625 13.229167"
   version="1.1"
   id="svg8"
   inkscape:version="0.92.2 5c3e80d, 2017-08-06"
   sodipodi:docname="bird.svg"
   inkscape:export-filename="/home/anirudh/Projects/Flappy Bird:Revolutions/images/bird.png"
   inkscape:export-xdpi="96"
   inkscape:export-ydpi="96">
  <defs
     id="defs2">
    <inkscape:path-effect
       effect="simplify"
       id="path-effect857"
       is_visible="true"
       steps="1"
       threshold="0.000408163"
       smooth_angles="360"
       helper_size="0"
       simplify_individual_paths="false"
       simplify_just_coalesce="false"
       simplifyindividualpaths="false"
       simplifyJustCoalesce="false" />
    <inkscape:path-effect
       effect="simplify"
       id="path-effect843"
       is_visible="true"
       steps="1"
       threshold="0.000408163"
       smooth_angles="360"
       helper_size="0"
       simplify_individual_paths="false"
       simplify_just_coalesce="false"
       simplifyindividualpaths="false"
       simplifyJustCoalesce="false" />
    <inkscape:path-effect
       effect="simplify"
       id="path-effect839"
       is_visible="true"
       steps="1"
       threshold="0.000408163"
       smooth_angles="360"
       helper_size="0"
       simplify_individual_paths="false"
       simplify_just_coalesce="false"
       simplifyindividualpaths="false"
       simplifyJustCoalesce="false" />
  </defs>
  <sodipodi:namedview
     id="base"
     pagecolor="#ffffff"
     bordercolor="#666666"
     borderopacity="1.0"
     inkscape:pageopacity="0.0"
     inkscape:pageshadow="2"
     inkscape:zoom="11.2"
     inkscape:cx="0.68458787"
     inkscape:cy="16.032906"
     inkscape:document-units="mm"
     inkscape:current-layer="layer1"
     showgrid="false"
     units="px"
     inkscape:measure-start="9.91071,37.8571"
     inkscape:measure-end="10.0483,50.0003"
     inkscape:window-width="1362"
     inkscape:window-height="728"
     inkscape:window-x="0"
     inkscape:window-y="38"
     inkscape:window-maximized="0" />
  <metadata
     id="metadata5">
    <rdf:RDF>
      <cc:Work
         rdf:about="">
        <dc:format>image/svg+xml</dc:format>
        <dc:type
           rdf:resource="http://purl.org/dc/dcmitype/StillImage" />
        <dc:title></dc:title>
      </cc:Work>
    </rdf:RDF>
  </metadata>
  <g
     inkscape:label="Layer 1"
     inkscape:groupmode="layer"
     id="layer1"
     transform="translate(0,-283.77082)">
    <path
       style="fill:none;stroke:#000000;stroke-width:0.02526245px;stroke-linecap:butt;stroke-linejoin:miter;stroke-opacity:1"
       d="m 2.6584642,285.6229 c 0.0012,9.525 0.0012,9.525 0.0012,9.525"
       id="path10"
       inkscape:connector-curvature="0" />
    <path
       inkscape:connector-curvature="0"
       id="path14"
       d="m 9.2730479,285.6229 c 0.0012,9.525 0.0012,9.525 0.0012,9.525"
       style="fill:none;stroke:#000000;stroke-width:0.0252625px;stroke-linecap:butt;stroke-linejoin:miter;stroke-opacity:1" />
    <path
       style="opacity:1;fill:#ffffff;stroke:#000000;stroke-width:0.0279123;stroke-miterlimit:4;stroke-dasharray:none;stroke-opacity:1"
       id="path16"
       sodipodi:type="arc"
       sodipodi:cx="5.953125"
       sodipodi:cy="295.14789"
       sodipodi:rx="3.2933354"
       sodipodi:ry="1.8380399"
       sodipodi:start="0"
       sodipodi:end="3.1415927"
       sodipodi:open="true"
       d="m 9.2464604,295.14789 a 3.2933354,1.8380399 0 0 1 -1.6466677,1.59179 3.2933354,1.8380399 0 0 1 -3.2933355,0 3.2933354,1.8380399 0 0 1 -1.6466676,-1.59179" />
    <path
       d="m -2.6597896,-285.62289 a 3.2933354,1.8380399 0 0 1 -1.6466677,1.59178 3.2933354,1.8380399 0 0 1 -3.2933355,0 3.2933354,1.8380399 0 0 1 -1.6466676,-1.59178"
       sodipodi:open="true"
       sodipodi:end="3.1415927"
       sodipodi:start="0"
       sodipodi:ry="1.8380399"
       sodipodi:rx="3.2933354"
       sodipodi:cy="-285.62289"
       sodipodi:cx="-5.953125"
       sodipodi:type="arc"
       id="path823"
       style="opacity:1;fill:#ffffff;stroke:#000000;stroke-width:0.0279123;stroke-miterlimit:4;stroke-dasharray:none;stroke-opacity:1"
       transform="scale(-1)" />
    <path
       style="fill:none;stroke:#000000;stroke-width:0.02645833;stroke-linecap:butt;stroke-linejoin:miter;stroke-opacity:1;stroke-miterlimit:4;stroke-dasharray:none"
       d="m 9.2604166,293.81081 c 2.6930804,0.0236 2.6458334,-3.07105 2.6458334,-3.07105 H 9.2604166"
       id="path831"
       inkscape:connector-curvature="0" />
    <path
       style="opacity:1;fill:#ffffff;stroke:#000000;stroke-width:0.02496932;stroke-miterlimit:4;stroke-dasharray:none;stroke-opacity:1"
       id="path835"
       sodipodi:type="arc"
       sodipodi:cx="288.21677"
       sodipodi:cy="-8.8115797"
       sodipodi:rx="2.6333487"
       sodipodi:ry="1.8395215"
       sodipodi:start="0"
       sodipodi:end="3.1415927"
       sodipodi:open="true"
       d="m 290.85012,-8.8115797 a 2.6333487,1.8395215 0 0 1 -1.31668,1.5930724 2.6333487,1.8395215 0 0 1 -2.63335,-1e-7 2.6333487,1.8395215 0 0 1 -1.31667,-1.5930724"
       transform="rotate(90)" />
    <path
       style="fill:none;stroke:#000000;stroke-width:0.02645833;stroke-linecap:butt;stroke-linejoin:miter;stroke-opacity:1;stroke-miterlimit:4;stroke-dasharray:none"
       d="m 8.7406992,285.56621 c 0.1338666,0 0.2677333,-6e-5 0.4015999,0 0.02362,10e-6 0.047264,-8.4e-4 0.07087,0 0,0 0.00157,0.005 0.00157,0.005 0,0 -0.00157,0.007 -0.00157,0.007 0,0 -0.00157,0.006 -0.00157,0.006 0,0 0.00157,0.005 0.00157,0.005 0,0 0.00477,0.003 0.00477,0.003 0.013037,0.002 0.024668,-0.008 0.037706,-0.005 0,0 0.00477,0.003 0.00477,0.003 0,0 0.00157,0.005 0.00157,0.005 0,0 -0.00157,0.007 -0.00157,0.007 0,0 -0.00157,0.006 -0.00157,0.006 0,0 0.00157,0.005 0.00157,0.005 0,0 0.00547,0.002 0.00547,0.002 0.014883,5.2e-4 0.028849,-0.006 0.04349,-0.007 0,0 0.00193,0.001 0.00193,0.001 -0.00212,0.004 -0.0071,0.007 -0.011263,0.009 -0.00871,0.003 -0.018133,0.002 -0.027004,0.005"
       id="path837"
       inkscape:connector-curvature="0"
       inkscape:path-effect="#path-effect839"
       inkscape:original-d="m 8.7406992,285.56621 c 0.1338667,0 0.2677332,0 0.4015999,0 0.00573,0 0.070111,-7.6e-4 0.07087,0 0.00557,0.006 -0.00557,0.018 0,0.0236 0.011136,0.0111 0.036111,-0.0111 0.047247,0 0.00557,0.006 -0.00557,0.0181 0,0.0236 0.00936,0.009 0.065695,-0.0159 0.047247,0 -0.00907,0.008 -0.023077,0.006 -0.034616,0.009" />
    <path
       style="fill:none;stroke:#000000;stroke-width:0.02732537;stroke-linecap:butt;stroke-linejoin:miter;stroke-miterlimit:4;stroke-dasharray:none;stroke-opacity:1"
       d="m 9.2693036,290.74027 c -0.1134543,0.0278 -0.2277963,0.0518 -0.3423235,0.0748 -0.025682,0.005 -0.051619,0.009 -0.077063,0.0154 0,0 -0.00239,8.9e-4 -0.00239,8.9e-4 0,0 7.7e-5,0.001 7.7e-5,0.001 0.011159,0.002 0.022513,9.9e-4 0.033756,0.001 0.011655,2.1e-4 0.023421,-0.001 0.034977,2.6e-4 0.00563,7.4e-4 0.011066,0.003 0.016851,0.002 0,0 0.00531,-0.003 0.00531,-0.003 0,0 0.00169,-0.005 0.00169,-0.005 0,0 -0.00169,-0.006 -0.00169,-0.006 0,0 -0.00169,-0.006 -0.00169,-0.006 0,0 0.00169,-0.005 0.00169,-0.005 0,0 0.00538,-0.002 0.00538,-0.002 0.00683,-2.6e-4 0.013679,0.005 0.020072,0.002 0.019866,-0.009 0.078815,-0.0383 0.05935,-0.0282 -0.00472,0.002 -0.0095,0.005 -0.013156,0.009 0,0 -8.891e-4,0.002 -8.891e-4,0.002 0,0 0.00191,0.002 0.00191,0.002 0.00772,0.001 0.015628,-1.4e-4 0.023229,-0.002 0.012786,-0.002 0.025747,-0.004 0.038118,-0.008 0.015685,-0.005 0.02794,-0.019 0.04412,-0.0216 0.050859,-0.008 0.1017964,-0.0156 0.1526744,-0.0234 z"
       id="path855"
       inkscape:connector-curvature="0"
       inkscape:path-effect="#path-effect857"
       inkscape:original-d="m 9.2693036,290.74027 c -0.3898905,0.0955 -0.5133719,0.0936 -0.3562484,0.0936 0.00848,0 0.019448,0.006 0.025448,0 0.006,-0.006 -0.006,-0.018 0,-0.0234 0.006,-0.006 0.0174,0.002 0.025448,0 0.1441705,-0.0662 -0.037933,0.009 0.101785,-0.0234 0.018399,-0.004 0.033928,-0.0156 0.050893,-0.0234 0.050893,-0.008 0.101785,-0.0156 0.1526778,-0.0234 z" />
    <path
       transform="rotate(-90)"
       d="m -285.72958,9.2871618 a 2.5013728,1.8398397 0 0 1 -1.25069,1.5933482 2.5013728,1.8398397 0 0 1 -2.50137,0 2.5013728,1.8398397 0 0 1 -1.25069,-1.5933483"
       sodipodi:open="true"
       sodipodi:end="3.1415927"
       sodipodi:start="0"
       sodipodi:ry="1.8398397"
       sodipodi:rx="2.5013728"
       sodipodi:cy="9.2871618"
       sodipodi:cx="-288.23096"
       sodipodi:type="arc"
       id="path863"
       style="opacity:1;fill:#ffffff;stroke:#000000;stroke-width:0.02433769;stroke-miterlimit:4;stroke-dasharray:none;stroke-opacity:1" />
    <ellipse
       style="opacity:1;fill:#ffffff;stroke:#000000;stroke-width:0.03792646;stroke-miterlimit:4;stroke-dasharray:none;stroke-opacity:1"
       id="path865"
       cx="8.3981581"
       cy="289.52316"
       rx="0.54941845"
       ry="0.80927706" />
    <ellipse
       ry="0.80927706"
       rx="0.54941845"
       cy="289.54678"
       cx="9.9809332"
       id="ellipse867"
       style="opacity:1;fill:#ffffff;stroke:#000000;stroke-width:0.03792646;stroke-miterlimit:4;stroke-dasharray:none;stroke-opacity:1" />
    <ellipse
       style="opacity:1;fill:#ffffff;stroke:#000000;stroke-width:0.01463275;stroke-miterlimit:4;stroke-dasharray:none;stroke-opacity:1"
       id="ellipse869"
       cx="8.4723358"
       cy="289.73245"
       rx="0.25726694"
       ry="0.25726697" />
    <ellipse
       ry="0.25726697"
       rx="0.25726694"
       cy="289.75607"
       cx="10.007864"
       id="ellipse871"
       style="opacity:1;fill:#ffffff;stroke:#000000;stroke-width:0.01463275;stroke-miterlimit:4;stroke-dasharray:none;stroke-opacity:1" />
    <path
       style="opacity:1;fill:#dc322f;stroke:#000000;stroke-width:0.00892857;stroke-miterlimit:4;stroke-dasharray:none;stroke-opacity:1;fill-opacity:1"
       d="M 21.238159,49.824664 C 15.645184,49.40085 11.516946,47.292083 10.360411,44.268143 l -0.19368,-0.506406 -0.02651,-18.4375 c -0.01922,-13.371375 0.0011,-18.5846999 0.07385,-18.9732144 0.315739,-1.6855623 1.77716,-3.2954877 4.011177,-4.418778 1.436544,-0.7223114 3.289727,-1.27975917 5.227196,-1.57237001 1.330473,-0.20093775 4.587027,-0.22883631 5.803572,-0.0497186 2.686498,0.39554598 5.026733,1.20009421 6.736838,2.31605371 0.765038,0.4992395 1.972961,1.7596539 2.3177,2.4184193 0.246453,0.4709496 0.538276,1.3014549 0.542616,1.544246 6.25e-4,0.032605 -0.450949,0.077178 -1.003404,0.099052 C 32.655963,6.735195 31.8735,6.9049557 31.091099,7.2864402 28.655988,8.4737535 26.935193,11.238688 26.409,14.809527 c -0.194981,1.32318 -0.131345,3.564916 0.136774,4.818192 0.813413,3.80216 3.000427,6.500786 5.75232,7.097969 0.62758,0.13619 0.725323,0.135686 1.458153,-0.0075 0.432016,-0.08442 0.875885,-0.175782 0.986376,-0.203035 l 0.200893,-0.04955 v 8.171468 c 0,9.063417 0.002,9.027372 -0.573361,10.196778 -1.158433,2.354377 -4.611579,4.211461 -8.950247,4.8134 -1.007787,0.139818 -3.36064,0.239646 -4.18175,0.177426 z"
       id="path873"
       inkscape:connector-curvature="0"
       transform="matrix(0.26458333,0,0,0.26458333,0,283.77082)" />
    <path
       style="opacity:1;fill:#fddd2a;fill-opacity:1;stroke:#000000;stroke-width:0.00892857;stroke-miterlimit:4;stroke-dasharray:none;stroke-opacity:1"
       d="m 35.122088,32.123404 v -5.727739 h 4.916185 4.916186 l -0.04706,0.379465 c -0.02588,0.208705 -0.07133,0.660714 -0.100982,1.004464 -0.122999,1.425635 -0.649293,3.42714 -1.244739,4.733759 -1.441492,3.163145 -4.178987,5.085389 -7.52441,5.283574 l -0.915179,0.05422 z"
       id="path875"
       inkscape:connector-curvature="0"
       transform="matrix(0.26458333,0,0,0.26458333,0,283.77082)" />
    <path
       style="opacity:1;fill:#fddd2a;fill-opacity:1;stroke:#000000;stroke-width:0.00892857;stroke-miterlimit:4;stroke-dasharray:none;stroke-opacity:1"
       d="m 32.155361,26.524685 c -2.538572,-0.615373 -4.635259,-3.293278 -5.435316,-6.942028 -0.232292,-1.059391 -0.322867,-3.367052 -0.175904,-4.481634 0.455321,-3.453199 2.133053,-6.3390198 4.382284,-7.5378472 0.287941,-0.153471 0.837482,-0.3603104 1.221203,-0.4596433 0.893499,-0.2312978 2.466321,-0.3345186 2.659117,-0.174512 0.121291,0.1006627 0.136772,1.2036758 0.136772,9.7454345 v 9.631925 h -0.206932 c -0.113812,0 -0.505553,0.07941 -0.870535,0.176469 -0.770653,0.204938 -1.013365,0.210874 -1.710689,0.04184 z m 0.433713,-1.872186 c 0.66703,-0.390905 1.181191,-1.349306 1.319217,-2.459035 0.138862,-1.116448 -0.329769,-2.55376 -1.027321,-3.150839 -1.135826,-0.972224 -2.532316,-0.35523 -3.119614,1.378301 -0.164213,0.484707 -0.188309,0.717422 -0.156449,1.510931 0.0314,0.781972 0.07831,1.026999 0.282087,1.473215 0.27244,0.596579 0.766321,1.163321 1.172594,1.345582 0.444846,0.199565 1.092374,0.15801 1.529486,-0.09816 z"
       id="path877"
       inkscape:connector-curvature="0"
       transform="matrix(0.26458333,0,0,0.26458333,0,283.77082)" />
    <path
       style="opacity:1;fill:#ffffff;fill-opacity:1;stroke:#000000;stroke-width:0.00892857;stroke-miterlimit:4;stroke-dasharray:none;stroke-opacity:1"
       d="m 35.122088,16.853627 c 0,-8.3981063 0.0145,-9.386533 0.137693,-9.386533 0.340884,0 1.53597,0.2995274 1.981848,0.4967155 3.056037,1.3515247 5.088291,5.7085435 4.665392,10.0022915 -0.232985,2.365516 -1.085835,4.550195 -2.326538,5.959709 -0.404758,0.459829 -0.578548,0.503738 -0.268086,0.06774 0.938829,-1.318463 0.7025,-3.87575 -0.449284,-4.861634 -1.135826,-0.972224 -2.532316,-0.35523 -3.119615,1.378301 -0.164212,0.484707 -0.188308,0.717421 -0.156448,1.510931 0.0314,0.781972 0.07831,1.026998 0.282087,1.473214 0.278851,0.610619 0.771725,1.168471 1.192047,1.3492 0.426595,0.183426 1.087167,0.155849 1.441509,-0.06018 0.483743,-0.294918 0.424319,-0.13107 -0.09252,0.255112 -0.874652,0.653535 -1.79417,1.032496 -2.774688,1.143533 l -0.513393,0.05814 z"
       id="path879"
       inkscape:connector-curvature="0"
       transform="matrix(0.26458333,0,0,0.26458333,0,283.77082)" />
    <path
       style="opacity:1;fill:#ffffff;fill-opacity:1;stroke:#000000;stroke-width:0.00892857;stroke-miterlimit:4;stroke-dasharray:none;stroke-opacity:1"
       d="M 31.893397,26.402975 C 29.581098,25.66347 27.76822,23.36301 26.891962,20.05638 c -0.248783,-0.938806 -0.276021,-1.183621 -0.317881,-2.857143 -0.04071,-1.627779 -0.02435,-1.942213 0.14785,-2.841007 0.719945,-3.757719 2.768745,-6.4860639 5.412168,-7.2072734 0.292948,-0.079925 1.000329,-0.1673609 1.57196,-0.1943012 0.963944,-0.04543 1.042906,-0.03679 1.08865,0.1191209 0.02713,0.092457 0.07745,4.4348687 0.11184,9.6498037 l 0.06252,9.481699 -0.258311,0.05457 c -0.142071,0.03001 -0.50764,0.112577 -0.812375,0.183478 -0.729875,0.169817 -1.384835,0.155982 -2.004984,-0.04235 z m 0.805593,-1.784206 c 0.676455,-0.481679 1.160016,-1.496964 1.237427,-2.598104 0.106659,-1.517182 -0.666352,-3.046404 -1.714854,-3.392441 -0.955289,-0.315274 -1.970823,0.373461 -2.453716,1.66411 -0.227493,0.608029 -0.252273,2.082513 -0.04664,2.774966 0.170619,0.574538 0.817625,1.460473 1.213724,1.661936 0.44685,0.227275 1.371013,0.169404 1.764055,-0.110467 z"
       id="path881"
       inkscape:connector-curvature="0"
       transform="matrix(0.26458333,0,0,0.26458333,0,283.77082)" />
    <path
       style="opacity:1;fill:#ffffff;fill-opacity:1;stroke:#000000;stroke-width:0.00892857;stroke-miterlimit:4;stroke-dasharray:none;stroke-opacity:1"
       d="m 31.729231,23.386181 c -0.497326,-0.1818 -0.739505,-0.795813 -0.498049,-1.262736 0.28008,-0.541616 0.958533,-0.638175 1.397774,-0.198933 0.65561,0.655609 -0.03511,1.777734 -0.899725,1.461669 z"
       id="path883"
       inkscape:connector-curvature="0"
       transform="matrix(0.26458333,0,0,0.26458333,0,283.77082)" />
    <path
       style="opacity:1;fill:#ffffff;fill-opacity:1;stroke:#000000;stroke-width:0.00892857;stroke-miterlimit:4;stroke-dasharray:none;stroke-opacity:1"
       d="m 37.532802,23.475467 c -0.497325,-0.181801 -0.739504,-0.795813 -0.498049,-1.262737 0.280081,-0.541616 0.958533,-0.638174 1.397775,-0.198933 0.655609,0.65561 -0.03511,1.777735 -0.899726,1.46167 z"
       id="path885"
       inkscape:connector-curvature="0"
       transform="matrix(0.26458333,0,0,0.26458333,0,283.77082)" />
    <path
       style="opacity:1;fill:#000000;fill-opacity:1;stroke:#000000;stroke-width:0.00892857;stroke-miterlimit:4;stroke-dasharray:none;stroke-opacity:1"
       d="m 31.12242,24.50922 c -0.942731,-0.466642 -1.523757,-1.998694 -1.285322,-3.389142 0.341021,-1.98868 1.753642,-2.913716 2.886539,-1.890212 1.449671,1.309691 1.198818,4.570691 -0.407733,5.30037 -0.473209,0.214926 -0.725808,0.210478 -1.193484,-0.02102 z m 1.520184,-1.146243 c 0.491587,-0.386682 0.539087,-1.115501 0.101237,-1.55335 -0.656446,-0.656447 -1.728896,-0.207914 -1.728896,0.723079 0,0.334346 0.04898,0.447656 0.303572,0.702245 0.254588,0.254589 0.367899,0.303572 0.702244,0.303572 0.261187,0 0.475636,-0.06054 0.621843,-0.175546 z"
       id="path887"
       inkscape:connector-curvature="0"
       transform="matrix(0.26458333,0,0,0.26458333,0,283.77082)" />
    <path
       style="opacity:1;fill:#000000;fill-opacity:1;stroke:#000000;stroke-width:0.00892857;stroke-miterlimit:4;stroke-dasharray:none;stroke-opacity:1"
       d="m 37.166731,24.623971 c -0.477348,-0.227316 -0.786817,-0.573954 -1.088628,-1.219377 -0.228889,-0.489481 -0.250515,-0.624329 -0.250583,-1.5625 -6.8e-5,-0.938134 0.02154,-1.073039 0.250295,-1.5625 0.90059,-1.926985 2.585742,-1.822074 3.377732,0.210284 0.271836,0.697571 0.274283,1.990002 0.0051,2.680569 -0.508098,1.303361 -1.409629,1.874617 -2.293891,1.453524 z m 1.155261,-1.09921 c 0.316819,-0.144352 0.507033,-0.472394 0.512717,-0.884228 0.01278,-0.926269 -1.052061,-1.386653 -1.72222,-0.744599 -0.650438,0.623158 -0.23916,1.731874 0.642439,1.731874 0.187495,0 0.442674,-0.04637 0.567064,-0.103047 z"
       id="path889"
       inkscape:connector-curvature="0"
       transform="matrix(0.26458333,0,0,0.26458333,0,283.77082)" />
    <path
       style="fill:none;stroke:#000000;stroke-width:0.02645833;stroke-linecap:butt;stroke-linejoin:miter;stroke-opacity:1;stroke-miterlimit:4;stroke-dasharray:none"
       d="M 2.6222098,292.20441 C 0,292.20441 0,290.64526 0,290.64526 l 0.47247024,2.74033 0.61421126,-0.51972 -0.35435263,1.74814 1.88988093,-1.5119 -0.023623,-0.0236"
       id="path891"
       inkscape:connector-curvature="0" />
    <path
       style="opacity:1;fill:#000000;fill-opacity:1;stroke:#000000;stroke-width:0.00892857;stroke-miterlimit:4;stroke-dasharray:none;stroke-opacity:1"
       d="m 2.9226015,40.622526 c 0.027411,-0.0904 0.3122656,-1.470164 0.63301,-3.066146 C 3.8763558,35.960398 4.1598993,34.564192 4.185708,34.453701 4.211517,34.34321 4.201733,34.253274 4.163968,34.253844 4.126202,34.254415 3.5976908,34.67756 2.9894985,35.19417 2.3813061,35.710781 1.8720922,36.12186 1.857912,36.10768 1.806121,36.05589 0.4707726,28.160076 0.50757954,28.12327 c 0.0208809,-0.02088 0.16675258,0.162732 0.3241594,0.408029 0.38332196,0.597356 1.29097856,1.432993 2.03315636,1.871833 1.5833268,0.936201 4.0122597,1.525372 6.2973717,1.527515 l 0.78125,7.33e-4 v 1.566233 c 0,1.370825 -0.019495,1.58631 -0.15625,1.72715 -0.4395456,0.452674 -6.9072896,5.538334 -6.8646655,5.397763 z"
       id="path893"
       inkscape:connector-curvature="0"
       transform="matrix(0.26458333,0,0,0.26458333,0,283.77082)" />
  </g>
</svg>
