<?xml version="1.0" encoding="UTF-8" standalone="no"?>
<!-- Created with Inkscape (http://www.inkscape.org/) -->

<svg
   xmlns:dc="http://purl.org/dc/elements/1.1/"
   xmlns:cc="http://creativecommons.org/ns#"
   xmlns:rdf="http://www.w3.org/1999/02/22-rdf-syntax-ns#"
   xmlns:svg="http://www.w3.org/2000/svg"
   xmlns="http://www.w3.org/2000/svg"
   xmlns:sodipodi="http://sodipodi.sourceforge.net/DTD/sodipodi-0.dtd"
   xmlns:inkscape="http://www.inkscape.org/namespaces/inkscape"
   width="38.200001"
   height="30"
   viewBox="0 0 10.107083 7.9375002"
   version="1.1"
   id="svg8"
   inkscape:version="0.92.2 5c3e80d, 2017-08-06"
   sodipodi:docname="fat_bird.svg"
   inkscape:export-filename="/home/anirudh/Projects/Flappy Bird:Revolutions/images/fat_bird.png"
   inkscape:export-xdpi="96"
   inkscape:export-ydpi="96">
  <defs
     id="defs2" />
  <sodipodi:namedview
     id="base"
     pagecolor="#ffffff"
     bordercolor="#666666"
     borderopacity="1.0"
     inkscape:pageopacity="0.0"
     inkscape:pageshadow="2"
     inkscape:zoom="15.839192"
     inkscape:cx="6.4486043"
     inkscape:cy="15.003479"
     inkscape:document-units="mm"
     inkscape:current-layer="layer1"
     showgrid="false"
     units="px"
     showguides="false"
     inkscape:measure-start="38.2487,14.5209"
     inkscape:measure-end="40.0273,14.5209"
     inkscape:window-width="1362"
     inkscape:window-height="728"
     inkscape:window-x="0"
     inkscape:window-y="38"
     inkscape:window-maximized="0" />
  <metadata
     id="metadata5">
    <rdf:RDF>
      <cc:Work
         rdf:about="">
        <dc:format>image/svg+xml</dc:format>
        <dc:type
           rdf:resource="http://purl.org/dc/dcmitype/StillImage" />
        <dc:title></dc:title>
      </cc:Work>
    </rdf:RDF>
  </metadata>
  <g
     inkscape:label="Layer 1"
     inkscape:groupmode="layer"
     id="layer1"
     transform="translate(0,-289.06249)">
    <path
       style="fill:none;stroke:#000000;stroke-width:0.02494515px;stroke-linecap:butt;stroke-linejoin:miter;stroke-opacity:1"
       d="m 1.3524995,290.91457 c 0.00149,3.96017 0.00149,3.96017 0.00149,3.96017 v 0 l -2.974e-4,0.008"
       id="path10"
       inkscape:connector-curvature="0" />
    <path
       inkscape:connector-curvature="0"
       id="path12"
       d="m 7.9670871,290.91453 c 0.00149,3.96033 0.00149,3.96033 0.00149,3.96033 v 0 l -2.974e-4,0.008"
       style="fill:none;stroke:#000000;stroke-width:0.02494616px;stroke-linecap:butt;stroke-linejoin:miter;stroke-opacity:1" />
    <path
       style="opacity:1;fill:#ffffff;fill-opacity:1;stroke:#000000;stroke-width:0.02645833;stroke-miterlimit:4;stroke-dasharray:none;stroke-opacity:1"
       id="path14"
       sodipodi:type="arc"
       sodipodi:cx="4.6589794"
       sodipodi:cy="294.85205"
       sodipodi:rx="3.3061292"
       sodipodi:ry="2.1479614"
       sodipodi:start="0"
       sodipodi:end="3.1415927"
       sodipodi:open="true"
       d="m 7.9651086,294.85205 a 3.3061292,2.1479614 0 0 1 -1.6530646,1.86019 3.3061292,2.1479614 0 0 1 -3.3061293,0 3.3061292,2.1479614 0 0 1 -1.6530645,-1.86019" />
    <path
       d="m -1.3361456,-291.23532 a 3.3061292,2.1479614 0 0 1 -1.6530647,1.86019 3.3061292,2.1479614 0 0 1 -3.3061293,0 3.3061292,2.1479614 0 0 1 -1.6530645,-1.86019"
       sodipodi:open="true"
       sodipodi:end="3.1415927"
       sodipodi:start="0"
       sodipodi:ry="2.1479614"
       sodipodi:rx="3.3061292"
       sodipodi:cy="-291.23532"
       sodipodi:cx="-4.6422749"
       sodipodi:type="arc"
       id="path832"
       style="opacity:1;fill:#ffffff;fill-opacity:1;stroke:#000000;stroke-width:0.02645833;stroke-miterlimit:4;stroke-dasharray:none;stroke-opacity:1"
       transform="scale(-1)" />
    <path
       style="opacity:1;fill:#dc322f;fill-opacity:1;stroke:#000000;stroke-width:0.00167043;stroke-miterlimit:4;stroke-dasharray:none;stroke-opacity:1"
       d="m 4.1956177,296.95865 c -0.5450128,-0.0543 -1.0661599,-0.19573 -1.504855,-0.40851 -0.5793168,-0.28098 -1.0206368,-0.70404 -1.2042587,-1.15443 -0.1084448,-0.26599 -0.1039244,-0.16358 -0.1057021,-2.39474 -0.00159,-2.00608 -0.00122,-2.03175 0.033004,-2.15241 0.076553,-0.27 0.2698903,-0.57471 0.5084328,-0.8013 0.5010082,-0.47591 1.2003771,-0.77517 2.1048335,-0.90067 0.2535497,-0.0352 0.9241597,-0.0399 1.179159,-0.008 1.347674,0.16691 2.3886803,0.82641 2.6551345,1.6821 0.080838,0.25961 0.083744,0.33986 0.083469,2.3052 -2.053e-4,1.47601 -0.00473,1.86213 -0.022979,1.96276 -0.1425726,0.7861 -0.9276998,1.44938 -2.0573603,1.73807 -0.4003085,0.1023 -0.6537166,0.13433 -1.1176339,0.14126 -0.2204974,0.003 -0.4685569,-7.4e-4 -0.5512435,-0.009 z"
       id="path834"
       inkscape:connector-curvature="0" />
    <path
       style="fill:none;stroke:#000000;stroke-width:0.02645833;stroke-linecap:butt;stroke-linejoin:miter;stroke-miterlimit:4;stroke-dasharray:none;stroke-opacity:1"
       d="m 7.9685771,294.87486 c 2.0177573,0.004 2.1513919,-1.71687 2.1513919,-1.71687 l -2.1381556,0.0501"
       id="path846"
       inkscape:connector-curvature="0" />
    <path
       style="opacity:1;fill:#ffc800;fill-opacity:1;stroke:#000000;stroke-width:0.00167043;stroke-miterlimit:4;stroke-dasharray:none;stroke-opacity:1"
       d="m 7.9958564,294.04674 c 0,-0.44695 0.00188,-0.81321 0.00418,-0.81391 0.011062,-0.003 1.764026,-0.0472 1.918843,-0.048 l 0.1774146,-8.5e-4 -0.01476,0.079 c -0.02636,0.1411 -0.06855,0.27718 -0.132433,0.42717 -0.2989768,0.70193 -0.9115415,1.09816 -1.7903735,1.15808 l -0.1628675,0.0111 z"
       id="path848"
       inkscape:connector-curvature="0" />
    <path
       style="opacity:1;fill:#ffffff;fill-opacity:1;stroke:#000000;stroke-width:0.02247682;stroke-miterlimit:4;stroke-dasharray:none;stroke-opacity:1"
       id="path850"
       sodipodi:type="arc"
       sodipodi:cx="292.04742"
       sodipodi:cy="-7.9484048"
       sodipodi:rx="1.1793866"
       sodipodi:ry="1.1713094"
       sodipodi:start="0"
       sodipodi:end="3.1415927"
       sodipodi:open="true"
       d="m 293.22681,-7.9484048 a 1.1793866,1.1713094 0 0 1 -0.58969,1.0143837 1.1793866,1.1713094 0 0 1 -1.17939,-1e-7 1.1793866,1.1713094 0 0 1 -0.58969,-1.0143836"
       transform="rotate(90)" />
    <path
       transform="rotate(-90)"
       d="m -290.88473,7.9965138 a 1.1793866,1.1713094 0 0 1 -0.58969,1.0143837 1.1793866,1.1713094 0 0 1 -1.17939,0 1.1793866,1.1713094 0 0 1 -0.58969,-1.0143837"
       sodipodi:open="true"
       sodipodi:end="3.1415927"
       sodipodi:start="0"
       sodipodi:ry="1.1713094"
       sodipodi:rx="1.1793866"
       sodipodi:cy="7.9965138"
       sodipodi:cx="-292.06412"
       sodipodi:type="arc"
       id="path852"
       style="opacity:1;fill:#ffffff;fill-opacity:1;stroke:#000000;stroke-width:0.02247682;stroke-miterlimit:4;stroke-dasharray:none;stroke-opacity:1" />
    <path
       style="opacity:1;fill:#000000;fill-opacity:1;stroke:#000000;stroke-width:0.01978088;stroke-miterlimit:4;stroke-dasharray:none;stroke-opacity:1"
       id="path854"
       sodipodi:type="arc"
       sodipodi:cx="7.5337152"
       sodipodi:cy="292.57318"
       sodipodi:rx="0.32081005"
       sodipodi:ry="0.32086423"
       sodipodi:start="0"
       sodipodi:end="5.7671776"
       sodipodi:open="true"
       d="m 7.8545253,292.57318 a 0.32081005,0.32086423 0 0 1 -0.2795396,0.3182 0.32081005,0.32086423 0 0 1 -0.3514621,-0.23633 0.32081005,0.32086423 0 0 1 0.1891124,-0.379 0.32081005,0.32086423 0 0 1 0.4001185,0.13881" />
    <path
       d="m 8.7231509,292.6066 a 0.32081005,0.32086423 0 0 1 -0.2795396,0.3182 0.32081005,0.32086423 0 0 1 -0.351462,-0.23633 0.32081005,0.32086423 0 0 1 0.1891123,-0.37901 0.32081005,0.32086423 0 0 1 0.4001186,0.13882"
       sodipodi:open="true"
       sodipodi:end="5.7671776"
       sodipodi:start="0"
       sodipodi:ry="0.32086423"
       sodipodi:rx="0.32081005"
       sodipodi:cy="292.6066"
       sodipodi:cx="8.4023409"
       sodipodi:type="arc"
       id="path856"
       style="opacity:1;fill:#000000;fill-opacity:1;stroke:#000000;stroke-width:0.01978088;stroke-miterlimit:4;stroke-dasharray:none;stroke-opacity:1" />
    <path
       style="opacity:1;fill:#ffffff;fill-opacity:1;stroke:#000000;stroke-width:0;stroke-miterlimit:4;stroke-dasharray:none;stroke-opacity:1"
       id="path858"
       sodipodi:type="arc"
       sodipodi:cx="7.7011356"
       sodipodi:cy="292.47818"
       sodipodi:rx="0.1283278"
       sodipodi:ry="0.12833042"
       sodipodi:start="0"
       sodipodi:end="5.7671776"
       sodipodi:open="true"
       d="m 7.8294634,292.47818 a 0.1283278,0.12833042 0 0 1 -0.1118191,0.12726 0.1283278,0.12833042 0 0 1 -0.140589,-0.0945 0.1283278,0.12833042 0 0 1 0.075647,-0.15158 0.1283278,0.12833042 0 0 1 0.1600521,0.0555" />
    <path
       d="m 8.6980891,292.5116 a 0.1283278,0.12833042 0 0 1 -0.1118192,0.12726 0.1283278,0.12833042 0 0 1 -0.1405889,-0.0945 0.1283278,0.12833042 0 0 1 0.075647,-0.15158 0.1283278,0.12833042 0 0 1 0.1600522,0.0555"
       sodipodi:open="true"
       sodipodi:end="5.7671776"
       sodipodi:start="0"
       sodipodi:ry="0.12833042"
       sodipodi:rx="0.1283278"
       sodipodi:cy="292.5116"
       sodipodi:cx="8.5697613"
       sodipodi:type="arc"
       id="path860"
       style="opacity:1;fill:#ffffff;fill-opacity:1;stroke:#000000;stroke-width:0;stroke-miterlimit:4;stroke-dasharray:none;stroke-opacity:1" />
    <path
       style="fill:#000000;fill-opacity:1;stroke:#000000;stroke-width:0.1;stroke-linecap:butt;stroke-linejoin:miter;stroke-miterlimit:4;stroke-dasharray:none;stroke-opacity:1"
       d="M 1.3363476,293.79276 C 0,293.79276 0.08352173,292.55663 0.08352173,292.55663 l 0.30067822,2.23839 0.30067821,-0.40091 v 0.81851 l 0.65146944,-0.81851 v 0"
       id="path862"
       inkscape:connector-curvature="0" />
  </g>
</svg>
